<svg xmlns="http://www.w3.org/2000/svg" xmlns:xlink="http://www.w3.org/1999/xlink" width="500" height="500" preserveAspectRatio="xMidYMid meet" version="1.0" viewBox="0 0 375 375" zoomAndPan="magnify"><defs><clipPath id="77b15b27ff"><path d="M 187 97.035156 L 219.644531 97.035156 L 219.644531 136 L 187 136 Z M 187 97.035156" clip-rule="nonzero"/></clipPath><clipPath id="4ff523ce0b"><path d="M 187 135 L 219.644531 135 L 219.644531 173 L 187 173 Z M 187 135" clip-rule="nonzero"/></clipPath><clipPath id="b17ab27e10"><path d="M 187 172 L 219.644531 172 L 219.644531 210 L 187 210 Z M 187 172" clip-rule="nonzero"/></clipPath><clipPath id="e79fa53cae"><path d="M 155.144531 116 L 188 116 L 188 154 L 155.144531 154 Z M 155.144531 116" clip-rule="nonzero"/></clipPath><clipPath id="8702f12d75"><path d="M 155.144531 97.035156 L 188 97.035156 L 188 136 L 155.144531 136 Z M 155.144531 97.035156" clip-rule="nonzero"/></clipPath><clipPath id="88a05ff48b"><path d="M 155.144531 135 L 188 135 L 188 173 L 155.144531 173 Z M 155.144531 135" clip-rule="nonzero"/></clipPath><clipPath id="b0d038abc5"><path d="M 155.144531 172 L 188 172 L 188 210 L 155.144531 210 Z M 155.144531 172" clip-rule="nonzero"/></clipPath><clipPath id="c6f4558ecd"><path d="M 187 153 L 219.644531 153 L 219.644531 192 L 187 192 Z M 187 153" clip-rule="nonzero"/></clipPath><clipPath id="f7d1a44dde"><path d="M 177.636719 71.308594 L 197.136719 71.308594 L 197.136719 90.808594 L 177.636719 90.808594 Z M 177.636719 71.308594" clip-rule="nonzero"/></clipPath></defs><rect width="450" height="450" x="-37.5" y="-37.5" fill="#fff" fill-opacity="1"/><rect width="450" height="450" x="-37.5" y="-37.5" fill="#000" fill-opacity="1"/><g clip-path="url(#77b15b27ff)"><path fill="#fbccd5" fill-opacity="1" fill-rule="nonzero" d="M 219.671875 116.449219 L 187.40625 97.8125 L 187.40625 135.09375 Z M 219.671875 116.449219"/></g><g clip-path="url(#4ff523ce0b)"><path fill="#ed2730" fill-opacity="1" fill-rule="nonzero" d="M 219.671875 153.738281 L 187.40625 135.09375 L 187.40625 172.378906 Z M 219.671875 153.738281"/></g><g clip-path="url(#b17ab27e10)"><path fill="#a71c22" fill-opacity="1" fill-rule="nonzero" d="M 219.671875 191.023438 L 187.40625 172.378906 L 187.40625 209.660156 Z M 219.671875 191.023438"/></g><g clip-path="url(#e79fa53cae)"><path fill="#f26279" fill-opacity="1" fill-rule="nonzero" d="M 187.382812 135.09375 L 155.113281 116.449219 L 155.113281 153.738281 Z M 187.382812 135.09375"/></g><g clip-path="url(#8702f12d75)"><path fill="#f795a6" fill-opacity="1" fill-rule="nonzero" d="M 155.113281 116.449219 L 187.382812 97.8125 L 187.382812 135.09375 Z M 155.113281 116.449219"/></g><g clip-path="url(#88a05ff48b)"><path fill="#f03d4e" fill-opacity="1" fill-rule="nonzero" d="M 155.113281 153.738281 L 187.382812 135.09375 L 187.382812 172.378906 Z M 155.113281 153.738281"/></g><g clip-path="url(#b0d038abc5)"><path fill="#7c161c" fill-opacity="1" fill-rule="nonzero" d="M 155.113281 191.023438 L 187.382812 172.378906 L 187.382812 209.660156 Z M 155.113281 191.023438"/></g><g clip-path="url(#c6f4558ecd)"><path fill="#d31f26" fill-opacity="1" fill-rule="nonzero" d="M 187.40625 172.378906 L 219.671875 153.738281 L 219.671875 191.023438 Z M 187.40625 172.378906"/></g><g fill="#fff" fill-opacity="1"><g><g><path d="M 14.203125 0 L 2.515625 0 L 2.515625 -3.5 L 6.46875 -3.5 L 6.46875 -21 L 2.515625 -21 L 2.515625 -24.5 L 14.203125 -24.5 L 14.203125 -21 L 10.25 -21 L 10.25 -3.5 L 14.203125 -3.5 Z M 14.203125 0" transform="translate(119.085934, 250.566195)"/></g></g></g><g fill="#fff" fill-opacity="1"><g><g><path d="M 13.40625 -24.5 C 14.707031 -24.5 15.90625 -24.164062 17 -23.5 C 18.101562 -22.832031 18.976562 -21.929688 19.625 -20.796875 C 20.28125 -19.671875 20.609375 -18.394531 20.609375 -16.96875 C 20.609375 -15.570312 20.28125 -14.296875 19.625 -13.140625 C 18.976562 -11.984375 18.101562 -11.066406 17 -10.390625 C 15.90625 -9.710938 14.707031 -9.375 13.40625 -9.375 L 7.203125 -9.375 L 7.203125 0 L 3.4375 0 L 3.4375 -24.5 Z M 13.328125 -13.015625 C 13.960938 -13.015625 14.535156 -13.195312 15.046875 -13.5625 C 15.554688 -13.925781 15.96875 -14.40625 16.28125 -15 C 16.601562 -15.59375 16.765625 -16.25 16.765625 -16.96875 C 16.765625 -18.070312 16.425781 -18.992188 15.75 -19.734375 C 15.070312 -20.484375 14.265625 -20.859375 13.328125 -20.859375 L 7.203125 -20.859375 L 7.203125 -13.015625 Z M 13.328125 -13.015625" transform="translate(135.81216, 250.566195)"/></g></g></g><g fill="#fff" fill-opacity="1"><g><g><path d="M 4.34375 -7.390625 C 5.300781 -6.003906 6.296875 -4.929688 7.328125 -4.171875 C 8.367188 -3.421875 9.71875 -3.046875 11.375 -3.046875 C 12.164062 -3.046875 12.921875 -3.171875 13.640625 -3.421875 C 14.367188 -3.679688 14.96875 -4.054688 15.4375 -4.546875 C 15.90625 -5.035156 16.140625 -5.617188 16.140625 -6.296875 C 16.140625 -7.460938 15.640625 -8.375 14.640625 -9.03125 C 13.648438 -9.6875 12.257812 -10.1875 10.46875 -10.53125 C 8.175781 -11 6.351562 -11.8125 5 -12.96875 C 3.644531 -14.125 2.96875 -15.796875 2.96875 -17.984375 C 2.96875 -19.390625 3.359375 -20.601562 4.140625 -21.625 C 4.921875 -22.65625 5.953125 -23.445312 7.234375 -24 C 8.523438 -24.5625 9.914062 -24.84375 11.40625 -24.84375 C 13.34375 -24.84375 15.007812 -24.46875 16.40625 -23.71875 C 17.8125 -22.976562 18.910156 -21.921875 19.703125 -20.546875 L 17.046875 -17.921875 C 16.410156 -18.972656 15.613281 -19.820312 14.65625 -20.46875 C 13.707031 -21.125 12.59375 -21.453125 11.3125 -21.453125 C 10.019531 -21.453125 8.9375 -21.15625 8.0625 -20.5625 C 7.1875 -19.96875 6.75 -19.144531 6.75 -18.09375 C 6.75 -16.90625 7.207031 -16.035156 8.125 -15.484375 C 9.050781 -14.941406 10.273438 -14.503906 11.796875 -14.171875 C 13.171875 -13.890625 14.472656 -13.457031 15.703125 -12.875 C 16.941406 -12.289062 17.953125 -11.535156 18.734375 -10.609375 C 19.523438 -9.691406 19.921875 -8.582031 19.921875 -7.28125 C 19.921875 -4.945312 19.125 -3.09375 17.53125 -1.71875 C 15.945312 -0.34375 13.765625 0.34375 10.984375 0.34375 C 9.097656 0.34375 7.378906 -0.0234375 5.828125 -0.765625 C 4.273438 -1.515625 2.914062 -2.726562 1.75 -4.40625 Z M 4.34375 -7.390625" transform="translate(157.997149, 250.566195)"/></g></g></g><g fill="#fff" fill-opacity="1"><g><g><path d="M 18.6875 -3.640625 L 18.6875 0 L 3.4375 0 L 3.4375 -24.5 L 7.203125 -24.5 L 7.203125 -3.640625 Z M 18.6875 -3.640625" transform="translate(179.832223, 250.566195)"/></g></g></g><g fill="#fff" fill-opacity="1"><g><g><path d="M 25.6875 -12.25 C 25.6875 -10.476562 25.394531 -8.828125 24.8125 -7.296875 C 24.226562 -5.765625 23.394531 -4.425781 22.3125 -3.28125 C 21.226562 -2.144531 19.957031 -1.253906 18.5 -0.609375 C 17.039062 0.0234375 15.4375 0.34375 13.6875 0.34375 C 11.9375 0.34375 10.328125 0.0234375 8.859375 -0.609375 C 7.390625 -1.253906 6.117188 -2.144531 5.046875 -3.28125 C 3.972656 -4.425781 3.144531 -5.765625 2.5625 -7.296875 C 1.976562 -8.828125 1.6875 -10.476562 1.6875 -12.25 C 1.6875 -14.019531 1.976562 -15.671875 2.5625 -17.203125 C 3.144531 -18.734375 3.972656 -20.066406 5.046875 -21.203125 C 6.117188 -22.347656 7.390625 -23.238281 8.859375 -23.875 C 10.328125 -24.519531 11.9375 -24.84375 13.6875 -24.84375 C 15.4375 -24.84375 17.039062 -24.519531 18.5 -23.875 C 19.957031 -23.238281 21.226562 -22.347656 22.3125 -21.203125 C 23.394531 -20.066406 24.226562 -18.734375 24.8125 -17.203125 C 25.394531 -15.671875 25.6875 -14.019531 25.6875 -12.25 Z M 21.84375 -12.25 C 21.84375 -13.957031 21.488281 -15.476562 20.78125 -16.8125 C 20.082031 -18.15625 19.117188 -19.21875 17.890625 -20 C 16.671875 -20.78125 15.269531 -21.171875 13.6875 -21.171875 C 12.070312 -21.171875 10.648438 -20.78125 9.421875 -20 C 8.203125 -19.21875 7.25 -18.15625 6.5625 -16.8125 C 5.875 -15.476562 5.53125 -13.957031 5.53125 -12.25 C 5.53125 -10.539062 5.875 -9.015625 6.5625 -7.671875 C 7.25 -6.335938 8.203125 -5.28125 9.421875 -4.5 C 10.648438 -3.71875 12.070312 -3.328125 13.6875 -3.328125 C 15.269531 -3.328125 16.671875 -3.71875 17.890625 -4.5 C 19.117188 -5.28125 20.082031 -6.347656 20.78125 -7.703125 C 21.488281 -9.054688 21.84375 -10.570312 21.84375 -12.25 Z M 21.84375 -12.25" transform="translate(200.792487, 250.566195)"/></g></g></g><g fill="#fff" fill-opacity="1"><g><g><path d="M 20.546875 -24.5 L 24.328125 -24.5 L 24.328125 0 L 20.859375 0 L 6.609375 -18.6875 C 6.753906 -17.269531 6.890625 -15.851562 7.015625 -14.4375 C 7.140625 -13.019531 7.203125 -11.601562 7.203125 -10.1875 L 7.203125 0 L 3.4375 0 L 3.4375 -24.5 L 6.828125 -24.5 L 21.0625 -5.421875 C 20.851562 -7.128906 20.710938 -8.96875 20.640625 -10.9375 C 20.578125 -12.90625 20.546875 -14.742188 20.546875 -16.453125 Z M 20.546875 -24.5" transform="translate(228.156305, 250.566195)"/></g></g></g><g fill="#fff" fill-opacity="1"><g><g><path d="M 5.15625 0.140625 C 4.601562 0.140625 4.0625 0.0664062 3.53125 -0.078125 C 3.007812 -0.234375 2.53125 -0.460938 2.09375 -0.765625 C 1.65625 -1.066406 1.285156 -1.445312 0.984375 -1.90625 C 0.691406 -2.363281 0.492188 -2.894531 0.390625 -3.5 L 2.609375 -4.0625 C 2.660156 -3.550781 2.804688 -3.128906 3.046875 -2.796875 C 3.296875 -2.472656 3.601562 -2.234375 3.96875 -2.078125 C 4.34375 -1.921875 4.75 -1.84375 5.1875 -1.84375 C 5.632812 -1.84375 6.007812 -1.910156 6.3125 -2.046875 C 6.613281 -2.191406 6.84375 -2.382812 7 -2.625 C 7.15625 -2.863281 7.234375 -3.128906 7.234375 -3.421875 C 7.234375 -3.742188 7.144531 -4.019531 6.96875 -4.25 C 6.800781 -4.476562 6.578125 -4.675781 6.296875 -4.84375 C 6.015625 -5.007812 5.691406 -5.160156 5.328125 -5.296875 C 4.972656 -5.441406 4.601562 -5.585938 4.21875 -5.734375 C 3.84375 -5.890625 3.472656 -6.0625 3.109375 -6.25 C 2.753906 -6.445312 2.4375 -6.675781 2.15625 -6.9375 C 1.875 -7.195312 1.644531 -7.507812 1.46875 -7.875 C 1.300781 -8.238281 1.21875 -8.671875 1.21875 -9.171875 C 1.21875 -9.722656 1.320312 -10.210938 1.53125 -10.640625 C 1.738281 -11.066406 2.019531 -11.425781 2.375 -11.71875 C 2.738281 -12.007812 3.148438 -12.226562 3.609375 -12.375 C 4.078125 -12.53125 4.570312 -12.609375 5.09375 -12.609375 C 5.863281 -12.609375 6.578125 -12.429688 7.234375 -12.078125 C 7.898438 -11.734375 8.445312 -11.179688 8.875 -10.421875 L 7.015625 -9.296875 C 6.804688 -9.710938 6.523438 -10.035156 6.171875 -10.265625 C 5.816406 -10.503906 5.429688 -10.625 5.015625 -10.625 C 4.722656 -10.625 4.457031 -10.566406 4.21875 -10.453125 C 3.988281 -10.335938 3.800781 -10.179688 3.65625 -9.984375 C 3.519531 -9.785156 3.453125 -9.554688 3.453125 -9.296875 C 3.453125 -8.992188 3.535156 -8.738281 3.703125 -8.53125 C 3.878906 -8.332031 4.109375 -8.15625 4.390625 -8 C 4.671875 -7.84375 4.988281 -7.691406 5.34375 -7.546875 C 5.707031 -7.410156 6.078125 -7.269531 6.453125 -7.125 C 6.835938 -6.976562 7.207031 -6.804688 7.5625 -6.609375 C 7.925781 -6.410156 8.25 -6.175781 8.53125 -5.90625 C 8.8125 -5.644531 9.035156 -5.328125 9.203125 -4.953125 C 9.378906 -4.578125 9.46875 -4.132812 9.46875 -3.625 C 9.46875 -3.039062 9.351562 -2.515625 9.125 -2.046875 C 8.90625 -1.578125 8.597656 -1.179688 8.203125 -0.859375 C 7.804688 -0.535156 7.34375 -0.285156 6.8125 -0.109375 C 6.289062 0.0546875 5.738281 0.140625 5.15625 0.140625 Z M 5.15625 0.140625" transform="translate(154.106728, 272.266096)"/></g></g></g><g fill="#fff" fill-opacity="1"><g><g><path d="M 1.59375 0.015625 L 1.59375 -12.421875 L 5.609375 -12.421875 C 6.191406 -12.421875 6.742188 -12.335938 7.265625 -12.171875 C 7.785156 -12.015625 8.242188 -11.78125 8.640625 -11.46875 C 9.035156 -11.15625 9.347656 -10.769531 9.578125 -10.3125 C 9.804688 -9.863281 9.921875 -9.347656 9.921875 -8.765625 C 9.921875 -8.242188 9.816406 -7.769531 9.609375 -7.34375 C 9.398438 -6.914062 9.109375 -6.546875 8.734375 -6.234375 C 8.367188 -5.929688 7.953125 -5.695312 7.484375 -5.53125 L 10.9375 0.015625 L 8.390625 0.015625 L 5.328125 -5.3125 L 3.828125 -5.3125 L 3.828125 0.015625 Z M 3.84375 -7.125 L 5.8125 -7.125 C 6.40625 -7.15625 6.867188 -7.3125 7.203125 -7.59375 C 7.535156 -7.882812 7.703125 -8.265625 7.703125 -8.734375 C 7.703125 -9.242188 7.515625 -9.648438 7.140625 -9.953125 C 6.773438 -10.265625 6.273438 -10.421875 5.640625 -10.421875 L 3.84375 -10.421875 Z M 3.84375 -7.125" transform="translate(165.539921, 272.266096)"/></g></g></g><g fill="#fff" fill-opacity="1"><g><g><path d="M 1.59375 0 L 1.59375 -12.421875 L 5.90625 -12.421875 C 6.289062 -12.421875 6.671875 -12.382812 7.046875 -12.3125 C 7.421875 -12.238281 7.773438 -12.117188 8.109375 -11.953125 C 8.453125 -11.796875 8.753906 -11.585938 9.015625 -11.328125 C 9.285156 -11.066406 9.492188 -10.75 9.640625 -10.375 C 9.796875 -10 9.875 -9.566406 9.875 -9.078125 C 9.875 -8.703125 9.804688 -8.351562 9.671875 -8.03125 C 9.546875 -7.707031 9.375 -7.425781 9.15625 -7.1875 C 8.945312 -6.957031 8.726562 -6.773438 8.5 -6.640625 C 8.78125 -6.535156 9.039062 -6.375 9.28125 -6.15625 C 9.53125 -5.945312 9.742188 -5.703125 9.921875 -5.421875 C 10.109375 -5.140625 10.25 -4.84375 10.34375 -4.53125 C 10.445312 -4.21875 10.5 -3.910156 10.5 -3.609375 C 10.5 -3.023438 10.382812 -2.507812 10.15625 -2.0625 C 9.9375 -1.613281 9.632812 -1.234375 9.25 -0.921875 C 8.875 -0.617188 8.441406 -0.390625 7.953125 -0.234375 C 7.472656 -0.078125 6.96875 0 6.4375 0 Z M 3.828125 -7.421875 L 6.125 -7.421875 C 6.414062 -7.421875 6.691406 -7.460938 6.953125 -7.546875 C 7.210938 -7.628906 7.421875 -7.78125 7.578125 -8 C 7.742188 -8.226562 7.828125 -8.546875 7.828125 -8.953125 C 7.828125 -9.273438 7.742188 -9.539062 7.578125 -9.75 C 7.410156 -9.96875 7.1875 -10.128906 6.90625 -10.234375 C 6.625 -10.347656 6.300781 -10.40625 5.9375 -10.40625 L 3.828125 -10.40625 Z M 3.828125 -2.125 L 6.484375 -2.125 C 7.054688 -2.125 7.5 -2.265625 7.8125 -2.546875 C 8.132812 -2.828125 8.296875 -3.257812 8.296875 -3.84375 C 8.296875 -4.144531 8.21875 -4.421875 8.0625 -4.671875 C 7.90625 -4.921875 7.6875 -5.117188 7.40625 -5.265625 C 7.125 -5.421875 6.785156 -5.5 6.390625 -5.5 L 3.828125 -5.5 Z M 3.828125 -2.125" transform="translate(178.124482, 272.266096)"/></g></g></g><g fill="#fff" fill-opacity="1"><g><g><path d="M 1.59375 0 L 1.59375 -12.421875 L 3.828125 -12.421875 L 3.828125 0 Z M 1.59375 0" transform="translate(190.761777, 272.266096)"/></g></g></g><g fill="#fff" fill-opacity="1"><g><g><path d="M 4.46875 0.171875 C 3.832031 0.171875 3.265625 0.0664062 2.765625 -0.140625 C 2.265625 -0.359375 1.832031 -0.648438 1.46875 -1.015625 C 1.113281 -1.390625 0.832031 -1.820312 0.625 -2.3125 C 0.425781 -2.800781 0.304688 -3.320312 0.265625 -3.875 L 2.46875 -4.125 C 2.5 -3.71875 2.582031 -3.34375 2.71875 -3 C 2.863281 -2.664062 3.078125 -2.394531 3.359375 -2.1875 C 3.648438 -1.988281 4.019531 -1.890625 4.46875 -1.890625 C 5.007812 -1.890625 5.421875 -1.988281 5.703125 -2.1875 C 5.984375 -2.394531 6.171875 -2.6875 6.265625 -3.0625 C 6.367188 -3.445312 6.421875 -3.910156 6.421875 -4.453125 L 6.421875 -10.375 L 1.75 -10.375 L 1.75 -12.421875 L 8.65625 -12.421875 L 8.65625 -4.484375 C 8.65625 -3.816406 8.578125 -3.203125 8.421875 -2.640625 C 8.273438 -2.078125 8.035156 -1.582031 7.703125 -1.15625 C 7.367188 -0.738281 6.9375 -0.410156 6.40625 -0.171875 C 5.875 0.0546875 5.226562 0.171875 4.46875 0.171875 Z M 4.46875 0.171875" transform="translate(197.633447, 272.266096)"/></g></g></g><g fill="#fff" fill-opacity="1"><g><g><path d="M 0.109375 0 L 5.078125 -12.421875 L 6.75 -12.421875 L 11.703125 0 L 9.296875 0 L 8.328125 -2.703125 L 3.5 -2.703125 L 2.546875 0 Z M 4.265625 -4.609375 L 7.578125 -4.609375 L 5.921875 -9.140625 Z M 4.265625 -4.609375" transform="translate(209.084221, 272.266096)"/></g></g></g><g clip-path="url(#f7d1a44dde)"><path fill="#fff" fill-opacity="1" fill-rule="nonzero" d="M 197.359375 81.171875 C 197.359375 81.820312 197.296875 82.460938 197.171875 83.09375 C 197.042969 83.730469 196.859375 84.347656 196.609375 84.945312 C 196.363281 85.542969 196.058594 86.113281 195.699219 86.648438 C 195.339844 87.1875 194.929688 87.6875 194.472656 88.144531 C 194.015625 88.601562 193.515625 89.011719 192.976562 89.371094 C 192.441406 89.730469 191.871094 90.035156 191.273438 90.28125 C 190.675781 90.53125 190.058594 90.714844 189.421875 90.84375 C 188.789062 90.96875 188.148438 91.03125 187.5 91.03125 C 186.851562 91.03125 186.210938 90.96875 185.574219 90.84375 C 184.941406 90.714844 184.324219 90.53125 183.726562 90.28125 C 183.128906 90.035156 182.558594 89.730469 182.019531 89.371094 C 181.480469 89.011719 180.984375 88.601562 180.527344 88.144531 C 180.070312 87.6875 179.660156 87.1875 179.300781 86.648438 C 178.941406 86.113281 178.636719 85.542969 178.386719 84.945312 C 178.140625 84.347656 177.953125 83.730469 177.828125 83.09375 C 177.699219 82.460938 177.636719 81.820312 177.636719 81.171875 C 177.636719 80.523438 177.699219 79.882812 177.828125 79.246094 C 177.953125 78.613281 178.140625 77.996094 178.386719 77.398438 C 178.636719 76.800781 178.941406 76.230469 179.300781 75.691406 C 179.660156 75.152344 180.070312 74.65625 180.527344 74.199219 C 180.984375 73.742188 181.480469 73.332031 182.019531 72.972656 C 182.558594 72.613281 183.128906 72.308594 183.726562 72.058594 C 184.324219 71.8125 184.941406 71.625 185.574219 71.5 C 186.210938 71.371094 186.851562 71.308594 187.5 71.308594 C 188.148438 71.308594 188.789062 71.371094 189.421875 71.5 C 190.058594 71.625 190.675781 71.8125 191.273438 72.058594 C 191.871094 72.308594 192.441406 72.613281 192.976562 72.972656 C 193.515625 73.332031 194.015625 73.742188 194.472656 74.199219 C 194.929688 74.65625 195.339844 75.152344 195.699219 75.691406 C 196.058594 76.230469 196.363281 76.800781 196.609375 77.398438 C 196.859375 77.996094 197.042969 78.613281 197.171875 79.246094 C 197.296875 79.882812 197.359375 80.523438 197.359375 81.171875 Z M 197.359375 81.171875"/></g></svg>