<svg xmlns="http://www.w3.org/2000/svg" xmlns:xlink="http://www.w3.org/1999/xlink" width="133" height="136" fill="none" version="1.1" style="shape-rendering:geometricPrecision;text-rendering:geometricPrecision;image-rendering:optimizeQuality;fill-rule:evenodd;clip-rule:evenodd"><g><path style="opacity:1" fill="#fefbf6" d="M -0.5,-0.5 C 43.8333,-0.5 88.1667,-0.5 132.5,-0.5C 132.5,44.8333 132.5,90.1667 132.5,135.5C 88.1667,135.5 43.8333,135.5 -0.5,135.5C -0.5,90.1667 -0.5,44.8333 -0.5,-0.5 Z"/></g><g><path style="opacity:1" fill="#f8bd2b" d="M 128.5,4.5 C 129.117,4.61071 129.617,4.94404 130,5.5C 130.83,32.0032 130.663,58.3365 129.5,84.5C 128.206,88.2229 127.039,88.2229 126,84.5C 125.641,87.5443 124.974,87.8776 124,85.5C 123.478,88.496 121.978,90.8293 119.5,92.5C 120.557,92.9059 121.891,92.9059 123.5,92.5C 123.719,93.675 123.386,94.675 122.5,95.5C 116.83,94.5025 114.163,91.1691 114.5,85.5C 115.01,82.0172 115.677,78.6838 116.5,75.5C 117.831,56.0978 117.831,36.5978 116.5,17C 82.3309,16.1691 48.3309,16.3358 14.5,17.5C 14.1684,51.3375 14.5017,85.0041 15.5,118.5C 35.8333,119.833 56.1667,119.833 76.5,118.5C 77.1667,118.5 77.8333,118.5 78.5,118.5C 82.2142,118.41 85.5475,117.41 88.5,115.5C 90.1815,113.992 92.1815,112.992 94.5,112.5C 96.1238,112.36 97.2904,113.027 98,114.5C 98.4652,113.069 99.2986,111.903 100.5,111C 104.983,108.014 109.316,104.848 113.5,101.5C 113.83,98.8275 114.163,96.1608 114.5,93.5C 115.386,94.325 115.719,95.325 115.5,96.5C 118.463,96.9529 120.796,98.4529 122.5,101C 119.715,101.726 119.048,103.226 120.5,105.5C 115.097,114.906 107.431,122.073 97.5,127C 88.7939,131.884 79.4605,133.717 69.5,132.5C 47.1612,132.461 24.8279,132.128 2.5,131.5C 2.5,89.1667 2.5,46.8333 2.5,4.5C 44.5,4.5 86.5,4.5 128.5,4.5 Z"/></g><g><path style="opacity:1" fill="#f9c543" d="M 14.5,17.5 C 48.3309,16.3358 82.3309,16.1691 116.5,17C 117.831,36.5978 117.831,56.0978 116.5,75.5C 116.826,56.2571 116.493,37.0904 115.5,18C 82.5017,17.5 49.5017,17.3334 16.5,17.5C 15.8333,17.5 15.1667,17.5 14.5,17.5 Z"/></g><g><path style="opacity:1" fill="#fffefd" d="M 16.5,17.5 C 49.5017,17.3334 82.5017,17.5 115.5,18C 116.493,37.0904 116.826,56.2571 116.5,75.5C 115.677,78.6838 115.01,82.0172 114.5,85.5C 112.466,90.5718 110.133,95.5718 107.5,100.5C 104.167,103.167 101.167,106.167 98.5,109.5C 96.5956,109.738 95.2623,110.738 94.5,112.5C 92.1815,112.992 90.1815,113.992 88.5,115.5C 84.8379,115.723 81.5046,116.723 78.5,118.5C 77.8333,118.5 77.1667,118.5 76.5,118.5C 56.5,118.5 36.5,118.5 16.5,118.5C 16.8315,86.9956 16.4982,55.6622 15.5,24.5C 15.298,22.0504 15.6314,19.717 16.5,17.5 Z"/></g><g><path style="opacity:1" fill="#f9d16d" d="M 14.5,17.5 C 15.1667,17.5 15.8333,17.5 16.5,17.5C 15.6314,19.717 15.298,22.0504 15.5,24.5C 15.5,55.8333 15.5,87.1667 15.5,118.5C 14.5017,85.0041 14.1684,51.3375 14.5,17.5 Z"/></g><g><path style="opacity:1" fill="#fde8b6" d="M 15.5,24.5 C 16.4982,55.6622 16.8315,86.9956 16.5,118.5C 36.5,118.5 56.5,118.5 76.5,118.5C 56.1667,119.833 35.8333,119.833 15.5,118.5C 15.5,87.1667 15.5,55.8333 15.5,24.5 Z"/></g><g><path style="opacity:1" fill="#f8bf39" d="M 129.5,84.5 C 128.925,92.6392 125.925,99.6392 120.5,105.5C 119.048,103.226 119.715,101.726 122.5,101C 120.796,98.4529 118.463,96.9529 115.5,96.5C 115.719,95.325 115.386,94.325 114.5,93.5C 114.163,96.1608 113.83,98.8275 113.5,101.5C 109.316,104.848 104.983,108.014 100.5,111C 99.2986,111.903 98.4652,113.069 98,114.5C 97.2904,113.027 96.1238,112.36 94.5,112.5C 95.2623,110.738 96.5956,109.738 98.5,109.5C 102.5,107.5 105.5,104.5 107.5,100.5C 110.133,95.5718 112.466,90.5718 114.5,85.5C 114.163,91.1691 116.83,94.5025 122.5,95.5C 123.386,94.675 123.719,93.675 123.5,92.5C 121.891,92.9059 120.557,92.9059 119.5,92.5C 121.978,90.8293 123.478,88.496 124,85.5C 124.974,87.8776 125.641,87.5443 126,84.5C 127.039,88.2229 128.206,88.2229 129.5,84.5 Z"/></g><g><path style="opacity:1" fill="#f9d77b" d="M 107.5,100.5 C 105.5,104.5 102.5,107.5 98.5,109.5C 101.167,106.167 104.167,103.167 107.5,100.5 Z"/></g><g><path style="opacity:1" fill="#f6c555" d="M 128.5,4.5 C 86.5,4.5 44.5,4.5 2.5,4.5C 2.5,46.8333 2.5,89.1667 2.5,131.5C 24.8279,132.128 47.1612,132.461 69.5,132.5C 47.0061,133.497 24.3395,133.831 1.5,133.5C 1.5,90.1667 1.5,46.8333 1.5,3.5C 44.0033,3.168 86.3366,3.50134 128.5,4.5 Z"/></g><g><path style="opacity:1" fill="#fad882" d="M 88.5,115.5 C 85.5475,117.41 82.2142,118.41 78.5,118.5C 81.5046,116.723 84.8379,115.723 88.5,115.5 Z"/></g></svg>